<?xml version="1.0" encoding="utf-8"?>
<!-- Generator: Adobe Illustrator 23.1.1, SVG Export Plug-In . SVG Version: 6.00 Build 0)  -->
<svg version="1.1" id="Layer_2_1_" xmlns="http://www.w3.org/2000/svg" xmlns:xlink="http://www.w3.org/1999/xlink" x="0px" y="0px"
	 viewBox="0 0 440.3 419" style="enable-background:new 0 0 440.3 419;" xml:space="preserve">
<style type="text/css">
	.st0{fill:#015294;}
</style>
<path class="st0" d="M272.4,153.7c0,0-0.4-25.6-28.6-36.7c-1.8-0.7-3.9,0-3.9,0c-2.2,1.3-28.7,11.9-28.7,36.9v42.4
	c0,0-0.1,3.1,3.6,2.8c0,0,16.1-5.1,33.8-5.3c0,0,13.5-0.2,19.5,0.7c0,0,5,1.4,5-2.7L272.4,153.7z M260.1,154.7v23.5
	c0,3.1-3,2.5-3,2.5c-15.8-1.6-32.4,3.8-32.4,3.8c-1.3,0.3-1.2-1.4-1.2-1.4V155c-1-18.5,17.7-24.9,17.7-24.9c1.4-0.8,2.5,0,2.5,0
	C262.6,139,260.1,154.7,260.1,154.7z"/>
<path class="st0" d="M420.2,368.3c0,0-11.2-1-25.2,5.3c0,0-2,1.4-2.7-1.4V122.6c0,0-0.4-5.2,1.8-8c0,0,2.4-4.3-0.2-9.6
	c0,0-1.4-2.1-1.8-7.4l0.2-30c0,0,0.3-4.4-3.3-6.3l-6.6-3.1l-0.2,13.1c0,0-2.1,3-5.6-1.9l0.2-8.7c0,0,0.6-7.4-5.3-8.9l-15.7-5.3
	c-6.2-1.9-5.9,2.8-5.9,2.8l-0.2,8.4c0,0,0.2,1.4-2.4,1.4c0,0-3.1,0.2-4-2.6l-0.2-11.4c0,0-0.2-3.4-3.3-3.4l-26.2-4.9
	c0,0-7.2-1.8-6.8,4v10.1c0,0,0.2,2.2-3.5,1.6c0,0-4.3-0.2-4.7-3.7v-11v0.5c0,0,0.9-3.2-4.2-3.1H268c0,0-4.3-0.1-4.4,4.5v9.2
	c0,0,0.3,2.7-5.6,3.3c0,0-3.8,0.9-3.6-1.7v-12c0,0-0.3-2.4-4.2-1.7c0,0-12,2-27.3,5.1c0,0-3.5,0.5-3.4,4v13.7c0,0,0.2,2-3.3,2.6
	c0,0-3.7,1.6-3.7-1.9V47.2c0,0,0.1-2.6-3.5-1.7l-20.6,7.9c0,0-7.9,1.8-7.9,9.7V92c0,0,0.5,3.7-1.4,12.9c0,0-2.3,4.4,0,10.4
	c0,0,1.7,3.8,1.8,9.4v96.1c0,0-0.5,5-7.7,4.8c0,0-6.5,0.8-11.9-4c0,0-13.4-11.5-23.1-12.1c0,0-6.4-1.8-15.8,0.3
	c0,0-14.7,2.3-25.4,11.9l-17.2,17.2c0,0-8.7,8.7-18,14c0,0-9.1,4.2-17.7,16.5c0,0-6.6,10.9,0,22.6c0,0,0.9,2.3,4.7,6.2
	c0,0,6.1,3.8,6.4,14.9l0.2,54.3c0,0,0.5,5.7-3.1,9c0,0-7.2,3.1-12.5,4.7L16.4,387c0,0-2.9,0.6-2.2,1.2c0,0,7.4,4.3,20.5,1.7
	l40.8-10.5c0,0,12-3.4,20.8,0l6.2,2.5c0,0,9.4,3.2,16.8-0.3l14.2-7.7c0,0,14.5-9.7,23.9-6.2l7.2,3c0,0,10.7,6.7,27.2,0.2l12.9-3.9
	c0,0,17.4-6.2,33.6,0l12.2,4.9c0,0,17.8,8.5,38.1,0.5c0,0,16.5-9.4,31.6,0.5c0,0,26.2,20.4,52.3,19.9c0,0,12.1,1.5,28.9-10.1
	c0,0,16.2-13.2,31.5-11.4C433.4,371.1,432.8,369.1,420.2,368.3z M147.1,299.2v54.3c0,4.5-7.8,6.6-7.8,6.6
	c-12.2,4.6-22.3,11.4-22.3,11.4c-10.1,3.8-16.5,0-16.5,0c-5-3.3-5-10.1-5-10.1V299c0.3-29.3,24.7-36.6,24.7-36.6
	c1.2-0.7,2.3,0,2.3,0C148.8,273.4,147.1,299.2,147.1,299.2z M180.9,238.6V360c-1.4,3.4-5.3,1.9-5.3,1.9l-15.2-5
	c-1.2-1.3-1.4-2.8-1.4-2.8v-56.6c-2.1-37.8-35-47.1-35-47.1c-1.9-0.9-4.5,0-4.5,0c-35.5,12-35.3,46.7-35.3,46.7v66.7
	c0,2.6-3.8,4.1-3.8,4.1c-8.8,2.5-10.9,1.8-10.9,1.8c-2.6-0.8-2.8-3.6-2.8-3.6l0.3-55c0.2-10.1-6.5-18.4-6.5-18.4l-5.3-7.2
	c-1.4-2-1.5-5.7-1.5-5.7c0.5-10.4,13.1-18.2,13.1-18.2c5.3-3,13.6-9.1,13.6-9.1c5-3.5,8.5-7.7,8.5-7.7
	c11.7-11.7,21.4-18.7,21.4-18.7c24.2-16.5,41,0,41,0c9,8.8,15.7,8.5,15.7,8.5c7.7,0.7,10.9,0.7,10.9,0.7
	C181,235.4,180.9,238.6,180.9,238.6z M290.2,313.5v43c-0.5,3-1.7,3.5-1.7,3.5c-3.7,3-18.7,4.5-18.7,4.5c-15.4,0-24.8-7.2-24.8-7.2
	c-3.9-2.9-10.7-3.4-10.7-3.4c-2.3-0.8-2.2-3.5-2.2-3.5v-36.9c1.8-34.4,28.4-40.8,28.4-40.8c1.3-0.5,2,0,2,0
	C291.4,284.9,290.2,313.5,290.2,313.5z M381.9,123.6v253c0,5.2-8.4,5-8.4,5h-7.8c-14.7,0.2-26.2-10.7-26.2-10.7
	c-6.1-5.3-15.2-9.9-15.2-9.9c-9-4.4-18.8-5-18.8-5c-2.8-0.3-2.7-2.8-2.7-2.8l-0.1-35.8c0.3-43.4-38.3-57.2-38.3-57.2
	c-2.9-1.4-5.7,0-5.7,0c-42.7,15.9-39,57.1-39,57.1v32.1c0.3,3-3.3,3.3-3.3,3.3c-8.5,1.4-21.4,5.2-21.4,5.2c-3.7,0.9-3.3-2.3-3.3-2.3
	l-0.1-233c0-5,5.5-7,5.9-7s23.2-7.2,23.2-7.2c34.9-10.3,65.2-9.1,65.2-9.1c38.4,0,64.9,9,64.9,9c18.9,5.3,29.3,10.4,29.3,10.4
	C382.5,119.9,381.9,123.6,381.9,123.6z M382,108.6c-1.3,2.1-3.4,0.4-3.4,0.4c-46.9-19.8-92.5-17.8-92.5-17.8
	c-46.1-0.2-85.4,15.5-89.7,17.3c0,0-0.7,0.3-1.2,0.6c0.1-0.1-2.4,1.1-3.4-1.9c-2.3-5.4,2.4-7.8,2.4-7.8c55-19.5,91.9-16,91.9-16
	c58.2,0.4,94.5,19,94.5,19C383.9,103.7,382,108.6,382,108.6z M381.7,92.7c-0.7,1.5-2.7,0.6-2.7,0.6c-45-19.6-93-18-93-18
	c-53.7-0.4-93.2,16.9-93.2,16.9c-0.9,0.4-1.1-0.9-1.1-0.9l0,0v-1.1c0-7.1,0.5-25.4,0.5-25.4c0.2-3.6,10.3-5.9,10.3-5.9v13.6
	c0,0.8,0.7,0.7,0.7,0.7c21.6-6.4,26.7-7.3,26.7-7.3c2.1-0.7,2.1-2.7,2.1-2.7l0.1-10.9c0.3-3.3,7.1-3.9,7.1-3.9l3.6-0.4
	c2.7-0.3,2.2,4,2.2,4v7.6c0.2,4.6,5.3,3,5.3,3c3.6-1.5,21.6-2.2,21.6-2.2c2.5,0,2.4-1.9,2.4-1.9l-0.2-9.3c-0.2-3.3,3.6-3.3,3.6-3.3
	h7.7c2.3-0.3,1.8,2,1.8,2c0.3,5.9,0.5,9.5,0.5,9.5c0.4,3.4,5.3,3.8,5.3,3.8c12.7,0.5,24.4,2,24.4,2v-10c0,0,0-0.2,0-0.9
	c0-0.1,0-0.3,0-0.5c0-2.7,2.6-2.2,2.6-2.2l10.5,1.8c2.8,0.5,2.3,4.4,2.3,4.4l-0.2,6.2c1.1,5,5.8,6.2,5.8,6.2l17.9,5.3
	c2.2,0.7,2.4-2.4,2.4-2.4l0.3-12.2c9.1-0.3,8.5,4.8,8.5,4.8c-0.4,8.3,0,9.7,0,9.7c1.2,6.9,9.6,8.2,9.6,8.2c4.3,1.4,4.7,3.7,4.7,3.7
	C383.1,89,382.4,91.5,381.7,92.7z"/>
</svg>
